<mxfile host="app.diagrams.net" agent="Mozilla/5.0 (Windows NT 10.0; Win64; x64) AppleWebKit/537.36 (KHTML, like Gecko) Chrome/141.0.0.0 Safari/537.36" version="28.2.6">
  <diagram name="Modelo-Conceitual" id="kWonueT2yLcOsAkv7py6">
    <mxGraphModel dx="1042" dy="570" grid="0" gridSize="12" guides="1" tooltips="1" connect="1" arrows="1" fold="1" page="0" pageScale="1" pageWidth="827" pageHeight="1169" math="0" shadow="0">
      <root>
        <mxCell id="0" />
        <mxCell id="1" parent="0" />
        <mxCell id="ous69wa9nQLdCoOOMJr4-15" style="edgeStyle=orthogonalEdgeStyle;rounded=0;orthogonalLoop=1;jettySize=auto;html=1;exitX=0.5;exitY=1;exitDx=0;exitDy=0;entryX=0.5;entryY=0;entryDx=0;entryDy=0;endArrow=none;endFill=0;curved=1;" parent="1" source="ous69wa9nQLdCoOOMJr4-1" target="ous69wa9nQLdCoOOMJr4-10" edge="1">
          <mxGeometry relative="1" as="geometry" />
        </mxCell>
        <mxCell id="ous69wa9nQLdCoOOMJr4-1" value="tags" style="whiteSpace=wrap;html=1;align=center;" parent="1" vertex="1">
          <mxGeometry x="240" y="384" width="96" height="48" as="geometry" />
        </mxCell>
        <mxCell id="ous69wa9nQLdCoOOMJr4-6" style="edgeStyle=orthogonalEdgeStyle;rounded=0;orthogonalLoop=1;jettySize=auto;html=1;exitX=1;exitY=0.5;exitDx=0;exitDy=0;entryX=0.5;entryY=0;entryDx=0;entryDy=0;endArrow=none;endFill=0;curved=1;" parent="1" source="ous69wa9nQLdCoOOMJr4-2" target="ous69wa9nQLdCoOOMJr4-4" edge="1">
          <mxGeometry relative="1" as="geometry">
            <Array as="points">
              <mxPoint x="492" y="348" />
              <mxPoint x="576" y="348" />
            </Array>
          </mxGeometry>
        </mxCell>
        <mxCell id="R_cXPP02gJ7KSPnzb-fG-2" style="edgeStyle=orthogonalEdgeStyle;rounded=0;orthogonalLoop=1;jettySize=auto;html=1;exitX=0;exitY=0.5;exitDx=0;exitDy=0;entryX=0.5;entryY=0;entryDx=0;entryDy=0;curved=1;endArrow=none;endFill=0;" parent="1" source="ous69wa9nQLdCoOOMJr4-2" target="ous69wa9nQLdCoOOMJr4-1" edge="1">
          <mxGeometry relative="1" as="geometry">
            <Array as="points">
              <mxPoint x="372" y="348" />
              <mxPoint x="288" y="348" />
            </Array>
          </mxGeometry>
        </mxCell>
        <mxCell id="ous69wa9nQLdCoOOMJr4-2" value="tem" style="shape=rhombus;perimeter=rhombusPerimeter;whiteSpace=wrap;html=1;align=center;" parent="1" vertex="1">
          <mxGeometry x="372" y="312" width="120" height="60" as="geometry" />
        </mxCell>
        <mxCell id="ous69wa9nQLdCoOOMJr4-7" style="edgeStyle=orthogonalEdgeStyle;rounded=0;orthogonalLoop=1;jettySize=auto;html=1;exitX=0.5;exitY=1;exitDx=0;exitDy=0;entryX=0.5;entryY=0;entryDx=0;entryDy=0;endArrow=none;endFill=0;" parent="1" source="ous69wa9nQLdCoOOMJr4-3" target="ous69wa9nQLdCoOOMJr4-2" edge="1">
          <mxGeometry relative="1" as="geometry" />
        </mxCell>
        <mxCell id="ous69wa9nQLdCoOOMJr4-3" value="Usuario" style="whiteSpace=wrap;html=1;align=center;" parent="1" vertex="1">
          <mxGeometry x="384.5" y="228" width="95" height="48" as="geometry" />
        </mxCell>
        <mxCell id="ous69wa9nQLdCoOOMJr4-13" style="edgeStyle=orthogonalEdgeStyle;rounded=0;orthogonalLoop=1;jettySize=auto;html=1;exitX=0.5;exitY=1;exitDx=0;exitDy=0;entryX=0.5;entryY=0;entryDx=0;entryDy=0;endArrow=none;endFill=0;curved=1;" parent="1" source="ous69wa9nQLdCoOOMJr4-4" target="ous69wa9nQLdCoOOMJr4-12" edge="1">
          <mxGeometry relative="1" as="geometry" />
        </mxCell>
        <mxCell id="ous69wa9nQLdCoOOMJr4-4" value="notas" style="whiteSpace=wrap;html=1;align=center;" parent="1" vertex="1">
          <mxGeometry x="528" y="384" width="96" height="48" as="geometry" />
        </mxCell>
        <mxCell id="ous69wa9nQLdCoOOMJr4-9" value="tags anotação" style="whiteSpace=wrap;html=1;align=center;" parent="1" vertex="1">
          <mxGeometry x="384" y="576" width="96" height="48" as="geometry" />
        </mxCell>
        <mxCell id="ous69wa9nQLdCoOOMJr4-17" style="edgeStyle=orthogonalEdgeStyle;rounded=0;orthogonalLoop=1;jettySize=auto;html=1;exitX=0.5;exitY=1;exitDx=0;exitDy=0;entryX=0;entryY=0.5;entryDx=0;entryDy=0;endArrow=none;endFill=0;curved=1;" parent="1" source="ous69wa9nQLdCoOOMJr4-10" target="ous69wa9nQLdCoOOMJr4-9" edge="1">
          <mxGeometry relative="1" as="geometry" />
        </mxCell>
        <mxCell id="ous69wa9nQLdCoOOMJr4-10" value="tem" style="shape=rhombus;perimeter=rhombusPerimeter;whiteSpace=wrap;html=1;align=center;" parent="1" vertex="1">
          <mxGeometry x="276" y="477" width="120" height="60" as="geometry" />
        </mxCell>
        <mxCell id="ous69wa9nQLdCoOOMJr4-16" style="edgeStyle=orthogonalEdgeStyle;rounded=0;orthogonalLoop=1;jettySize=auto;html=1;exitX=0.5;exitY=1;exitDx=0;exitDy=0;entryX=1;entryY=0.5;entryDx=0;entryDy=0;endArrow=none;endFill=0;curved=1;" parent="1" source="ous69wa9nQLdCoOOMJr4-12" target="ous69wa9nQLdCoOOMJr4-9" edge="1">
          <mxGeometry relative="1" as="geometry" />
        </mxCell>
        <mxCell id="ous69wa9nQLdCoOOMJr4-12" value="Tem" style="shape=rhombus;perimeter=rhombusPerimeter;whiteSpace=wrap;html=1;align=center;" parent="1" vertex="1">
          <mxGeometry x="468" y="477" width="120" height="60" as="geometry" />
        </mxCell>
        <mxCell id="ous69wa9nQLdCoOOMJr4-25" value="1" style="text;html=1;whiteSpace=wrap;strokeColor=none;fillColor=none;align=center;verticalAlign=middle;rounded=0;" parent="1" vertex="1">
          <mxGeometry x="396.5" y="276" width="36" height="30" as="geometry" />
        </mxCell>
        <mxCell id="ous69wa9nQLdCoOOMJr4-26" value="N" style="text;html=1;whiteSpace=wrap;strokeColor=none;fillColor=none;align=center;verticalAlign=middle;rounded=0;" parent="1" vertex="1">
          <mxGeometry x="252" y="354" width="36" height="30" as="geometry" />
        </mxCell>
        <mxCell id="ous69wa9nQLdCoOOMJr4-27" value="1" style="text;html=1;whiteSpace=wrap;strokeColor=none;fillColor=none;align=center;verticalAlign=middle;rounded=0;" parent="1" vertex="1">
          <mxGeometry x="432.5" y="276" width="36" height="30" as="geometry" />
        </mxCell>
        <mxCell id="ous69wa9nQLdCoOOMJr4-28" value="N" style="text;html=1;whiteSpace=wrap;strokeColor=none;fillColor=none;align=center;verticalAlign=middle;rounded=0;" parent="1" vertex="1">
          <mxGeometry x="576" y="354" width="36" height="30" as="geometry" />
        </mxCell>
        <mxCell id="ous69wa9nQLdCoOOMJr4-29" value="N" style="text;html=1;whiteSpace=wrap;strokeColor=none;fillColor=none;align=center;verticalAlign=middle;rounded=0;" parent="1" vertex="1">
          <mxGeometry x="288" y="354" width="36" height="30" as="geometry" />
        </mxCell>
        <mxCell id="ous69wa9nQLdCoOOMJr4-30" value="N" style="text;html=1;whiteSpace=wrap;strokeColor=none;fillColor=none;align=center;verticalAlign=middle;rounded=0;" parent="1" vertex="1">
          <mxGeometry x="540" y="354" width="36" height="30" as="geometry" />
        </mxCell>
        <mxCell id="ous69wa9nQLdCoOOMJr4-31" value="1" style="text;html=1;whiteSpace=wrap;strokeColor=none;fillColor=none;align=center;verticalAlign=middle;rounded=0;" parent="1" vertex="1">
          <mxGeometry x="252" y="432" width="36" height="30" as="geometry" />
        </mxCell>
        <mxCell id="ous69wa9nQLdCoOOMJr4-32" value="N" style="text;html=1;whiteSpace=wrap;strokeColor=none;fillColor=none;align=center;verticalAlign=middle;rounded=0;" parent="1" vertex="1">
          <mxGeometry x="348" y="600" width="36" height="30" as="geometry" />
        </mxCell>
        <mxCell id="ous69wa9nQLdCoOOMJr4-33" value="1" style="text;html=1;whiteSpace=wrap;strokeColor=none;fillColor=none;align=center;verticalAlign=middle;rounded=0;" parent="1" vertex="1">
          <mxGeometry x="576" y="432" width="36" height="30" as="geometry" />
        </mxCell>
        <mxCell id="ous69wa9nQLdCoOOMJr4-34" value="N" style="text;html=1;whiteSpace=wrap;strokeColor=none;fillColor=none;align=center;verticalAlign=middle;rounded=0;" parent="1" vertex="1">
          <mxGeometry x="479" y="600" width="36" height="30" as="geometry" />
        </mxCell>
      </root>
    </mxGraphModel>
  </diagram>
</mxfile>
